<svg id="svg" version="1.1" xmlns="http://www.w3.org/2000/svg" xmlns:xlink="http://www.w3.org/1999/xlink" width="400" height="400" viewBox="0, 0, 400,400"><g id="svgg"><path id="path0" d="M194.200 59.192 C 190.342 59.455,186.265 60.149,184.600 60.828 C 184.160 61.007,183.176 61.277,182.413 61.428 C 181.650 61.578,180.750 61.840,180.413 62.010 C 180.076 62.179,178.990 62.630,178.000 63.012 C 175.150 64.112,169.122 67.176,167.727 68.234 C 167.026 68.765,166.261 69.200,166.027 69.200 C 165.792 69.200,165.600 69.351,165.600 69.536 C 165.600 69.720,165.195 70.063,164.700 70.296 C 162.559 71.307,155.541 78.181,152.400 82.344 C 151.850 83.073,151.175 83.911,150.900 84.206 C 150.625 84.501,150.400 84.837,150.400 84.951 C 150.400 85.066,149.883 85.934,149.252 86.880 C 147.209 89.941,143.600 97.509,143.600 98.734 C 143.600 99.122,143.398 99.642,143.152 99.888 C 142.711 100.329,142.452 101.269,141.581 105.600 C 141.338 106.810,140.973 108.353,140.769 109.028 C 140.289 110.627,140.289 126.973,140.769 128.572 C 140.973 129.247,141.317 130.700,141.534 131.800 C 142.197 135.151,142.826 137.380,143.223 137.780 C 143.430 137.989,143.600 138.478,143.600 138.866 C 143.600 140.265,148.282 149.825,149.851 151.631 C 150.153 151.979,150.400 152.459,150.400 152.698 C 150.400 152.938,150.541 153.193,150.713 153.267 C 150.886 153.340,151.921 154.570,153.013 156.000 C 158.723 163.473,170.911 172.607,177.320 174.216 C 177.918 174.366,178.506 174.649,178.627 174.844 C 178.748 175.040,179.124 175.200,179.463 175.200 C 179.802 175.200,180.646 175.443,181.340 175.741 C 183.158 176.521,185.846 177.213,188.600 177.610 C 189.920 177.800,191.720 178.142,192.600 178.368 C 194.707 178.912,205.306 178.899,207.600 178.350 C 208.590 178.113,210.390 177.771,211.600 177.590 C 213.947 177.237,216.889 176.509,218.200 175.956 C 218.640 175.770,219.900 175.330,221.000 174.978 C 222.803 174.401,230.011 171.033,231.000 170.306 C 237.897 165.233,239.866 163.664,242.224 161.360 C 243.777 159.842,245.928 157.430,247.005 156.000 C 248.082 154.570,249.071 153.310,249.202 153.200 C 249.334 153.090,249.873 152.280,250.400 151.400 C 250.927 150.520,251.461 149.710,251.587 149.600 C 251.843 149.375,255.525 141.841,255.984 140.600 C 256.888 138.157,257.313 136.856,257.617 135.600 C 257.803 134.830,258.135 133.480,258.355 132.600 C 259.315 128.755,259.600 126.699,259.822 122.000 C 260.115 115.811,259.148 105.671,258.080 103.726 C 257.816 103.246,257.594 102.346,257.587 101.726 C 257.580 101.107,257.310 100.251,256.987 99.824 C 256.664 99.396,256.400 98.719,256.400 98.318 C 256.400 97.917,256.237 97.277,256.037 96.895 C 255.837 96.513,254.804 94.400,253.741 92.200 C 252.678 90.000,251.581 87.962,251.304 87.671 C 251.027 87.381,250.800 86.968,250.800 86.755 C 250.800 86.541,250.575 86.098,250.300 85.769 C 250.025 85.441,249.618 84.953,249.395 84.686 C 249.172 84.419,248.646 83.660,248.226 83.000 C 246.400 80.131,239.523 73.259,236.000 70.784 C 235.230 70.243,234.510 69.702,234.400 69.582 C 233.935 69.075,228.925 66.092,228.100 65.831 C 227.605 65.674,227.200 65.378,227.200 65.173 C 227.200 64.968,226.913 64.800,226.562 64.800 C 226.211 64.800,225.446 64.546,224.862 64.236 C 223.153 63.328,220.915 62.400,220.434 62.400 C 220.189 62.400,219.677 62.231,219.295 62.023 C 218.448 61.564,215.220 60.699,211.200 59.852 C 207.678 59.111,199.857 58.807,194.200 59.192 M189.600 217.603 C 188.610 217.789,186.540 217.960,185.000 217.985 C 183.460 218.009,181.120 218.289,179.800 218.608 C 178.480 218.927,176.662 219.190,175.760 219.194 C 174.858 219.197,173.598 219.382,172.960 219.604 C 172.322 219.826,170.630 220.177,169.200 220.384 C 165.612 220.903,162.622 221.481,161.091 221.952 C 159.897 222.319,158.311 222.698,154.200 223.598 C 151.559 224.176,149.040 224.874,148.349 225.220 C 147.991 225.399,147.001 225.671,146.149 225.825 C 145.297 225.979,144.420 226.245,144.200 226.416 C 143.980 226.588,143.123 226.855,142.296 227.010 C 141.468 227.164,140.693 227.450,140.572 227.645 C 140.451 227.840,139.868 228.006,139.276 228.013 C 138.684 228.020,137.851 228.290,137.424 228.613 C 136.996 228.936,136.276 229.206,135.824 229.213 C 135.371 229.220,134.651 229.490,134.224 229.813 C 133.796 230.136,133.119 230.400,132.718 230.400 C 132.317 230.400,131.677 230.554,131.295 230.741 C 130.913 230.929,129.880 231.394,129.000 231.776 C 128.120 232.157,126.890 232.724,126.268 233.035 C 125.645 233.346,124.956 233.600,124.738 233.600 C 123.739 233.600,109.621 240.938,107.327 242.650 C 106.626 243.172,105.950 243.600,105.823 243.600 C 105.508 243.600,99.843 247.784,97.460 249.778 C 94.476 252.274,91.378 255.422,89.954 257.404 C 89.245 258.392,88.515 259.200,88.332 259.200 C 88.149 259.200,88.000 259.408,88.000 259.662 C 88.000 259.916,87.576 260.681,87.058 261.362 C 86.539 262.043,85.987 263.005,85.831 263.500 C 85.674 263.995,85.378 264.400,85.173 264.400 C 84.968 264.400,84.800 264.726,84.800 265.124 C 84.800 265.521,84.536 266.196,84.213 266.624 C 83.890 267.051,83.620 267.694,83.613 268.054 C 83.606 268.414,83.331 269.224,83.002 269.854 C 82.674 270.484,82.404 271.558,82.402 272.240 C 82.401 272.922,82.197 274.062,81.950 274.773 C 81.442 276.228,81.767 277.141,83.688 279.658 C 84.299 280.459,84.800 281.314,84.800 281.558 C 84.800 281.801,84.944 282.000,85.120 282.000 C 85.295 282.000,85.880 282.715,86.420 283.589 C 86.959 284.463,87.535 285.183,87.700 285.189 C 87.865 285.195,88.000 285.470,88.000 285.800 C 88.000 286.130,88.149 286.400,88.332 286.400 C 88.515 286.400,89.225 287.180,89.909 288.134 C 91.981 291.018,94.265 293.503,101.000 300.200 C 107.728 306.889,108.651 307.743,111.600 310.001 C 112.590 310.759,113.490 311.486,113.600 311.615 C 113.932 312.007,119.977 316.400,120.184 316.400 C 120.426 316.400,124.129 318.909,124.400 319.256 C 124.510 319.397,125.320 319.904,126.200 320.384 C 127.080 320.863,128.340 321.590,129.000 322.000 C 130.842 323.144,133.093 324.361,136.600 326.110 C 138.360 326.988,140.070 327.863,140.400 328.055 C 140.730 328.248,141.270 328.513,141.600 328.645 C 141.930 328.778,142.830 329.149,143.600 329.470 C 144.370 329.791,145.450 330.241,146.000 330.469 C 146.550 330.697,147.540 331.120,148.200 331.409 C 148.860 331.697,150.300 332.234,151.400 332.602 C 152.500 332.970,153.676 333.412,154.013 333.585 C 154.350 333.757,155.244 334.034,156.000 334.200 C 156.756 334.366,157.650 334.633,157.987 334.794 C 159.269 335.407,162.747 336.401,163.654 336.414 C 164.174 336.422,165.050 336.686,165.600 337.000 C 166.150 337.314,167.197 337.578,167.926 337.586 C 168.656 337.594,169.640 337.807,170.113 338.061 C 170.587 338.314,172.060 338.668,173.387 338.847 C 174.714 339.025,177.690 339.452,180.000 339.794 C 190.702 341.378,209.471 341.382,220.000 339.802 C 222.310 339.455,225.286 339.025,226.613 338.847 C 227.940 338.668,229.413 338.314,229.887 338.061 C 230.360 337.807,231.230 337.600,231.820 337.600 C 232.410 337.600,233.727 337.337,234.746 337.015 C 235.766 336.693,237.680 336.142,239.000 335.791 C 240.320 335.440,241.713 334.984,242.095 334.777 C 242.477 334.569,243.107 334.399,243.495 334.398 C 243.883 334.396,244.716 334.126,245.346 333.798 C 245.976 333.469,246.735 333.200,247.032 333.200 C 247.587 333.200,249.775 332.325,251.662 331.349 C 252.246 331.047,252.963 330.800,253.256 330.800 C 253.856 330.800,255.826 329.885,263.600 325.997 C 269.888 322.851,271.723 321.885,272.000 321.576 C 272.110 321.452,273.280 320.682,274.600 319.864 C 275.920 319.046,277.351 318.157,277.781 317.888 C 278.928 317.171,287.766 310.719,288.000 310.428 C 288.110 310.291,289.004 309.554,289.986 308.790 C 290.969 308.025,292.245 306.950,292.822 306.400 C 298.485 300.999,300.259 299.245,303.200 296.132 C 306.661 292.470,306.998 292.084,309.786 288.588 C 310.659 287.495,311.478 286.510,311.607 286.400 C 311.736 286.290,312.462 285.300,313.221 284.200 C 313.979 283.100,314.691 282.110,314.803 282.000 C 316.500 280.327,318.434 276.449,318.194 275.200 C 318.045 274.430,317.789 272.990,317.625 272.000 C 317.460 271.010,317.137 269.750,316.907 269.200 C 316.676 268.650,316.159 267.390,315.757 266.400 C 314.924 264.349,312.788 260.666,312.316 260.467 C 312.142 260.393,312.000 260.093,312.000 259.800 C 312.000 259.507,311.862 259.207,311.693 259.133 C 311.524 259.060,310.671 258.100,309.798 257.000 C 306.284 252.576,295.675 243.600,293.960 243.600 C 293.762 243.600,293.600 243.449,293.600 243.264 C 293.600 243.080,293.195 242.726,292.700 242.478 C 292.205 242.230,290.900 241.493,289.800 240.839 C 287.163 239.273,275.770 233.600,275.262 233.600 C 275.044 233.600,274.355 233.346,273.732 233.035 C 273.110 232.724,271.880 232.157,271.000 231.776 C 270.120 231.394,269.087 230.929,268.705 230.741 C 268.323 230.554,267.683 230.400,267.282 230.400 C 266.881 230.400,266.204 230.136,265.776 229.813 C 265.349 229.490,264.629 229.220,264.176 229.213 C 263.724 229.206,263.004 228.936,262.576 228.613 C 262.149 228.290,261.316 228.020,260.724 228.013 C 260.132 228.006,259.549 227.840,259.428 227.645 C 259.307 227.450,258.532 227.164,257.704 227.010 C 256.877 226.855,256.020 226.588,255.800 226.416 C 255.580 226.245,254.703 225.979,253.851 225.825 C 252.999 225.671,252.009 225.399,251.651 225.220 C 250.862 224.825,247.989 224.056,245.785 223.650 C 244.897 223.487,243.942 223.211,243.663 223.039 C 243.383 222.866,242.220 222.573,241.077 222.387 C 239.148 222.074,237.051 221.629,233.600 220.802 C 231.315 220.254,227.224 219.594,223.690 219.202 C 221.870 219.000,220.174 218.707,219.922 218.552 C 218.582 217.723,193.189 216.929,189.600 217.603 " stroke="none" fill="#a4a4a4" fill-rule="evenodd"></path><path id="path1" d="M0.000 200.000 L 0.000 400.000 200.000 400.000 L 400.000 400.000 400.000 200.000 L 400.000 0.000 200.000 0.000 L 0.000 0.000 0.000 200.000 M209.869 58.474 C 211.667 58.763,213.272 59.135,213.436 59.300 C 213.599 59.465,214.288 59.601,214.967 59.602 C 215.645 59.604,216.716 59.874,217.346 60.202 C 217.976 60.531,218.908 60.800,219.417 60.800 C 219.926 60.800,220.613 61.070,220.943 61.400 C 221.273 61.730,221.826 62.000,222.173 62.000 C 222.747 62.000,229.083 64.970,231.000 66.138 C 233.687 67.774,236.657 69.762,237.000 70.155 C 237.220 70.407,238.206 71.240,239.191 72.006 C 241.688 73.949,246.265 78.613,247.486 80.458 C 248.047 81.306,248.662 82.000,248.853 82.000 C 249.044 82.000,249.200 82.255,249.200 82.567 C 249.200 82.878,249.335 83.193,249.500 83.267 C 249.977 83.479,252.800 87.759,252.800 88.270 C 252.800 88.525,252.935 88.793,253.100 88.867 C 253.474 89.033,254.800 91.524,254.800 92.061 C 254.800 92.279,255.070 92.727,255.400 93.057 C 255.730 93.387,256.000 93.994,256.000 94.405 C 256.000 94.816,256.163 95.254,256.363 95.377 C 256.563 95.501,257.028 96.636,257.396 97.901 C 257.765 99.165,258.321 100.791,258.633 101.514 C 258.945 102.236,259.200 103.415,259.200 104.134 C 259.200 104.852,259.409 105.649,259.665 105.905 C 261.153 107.393,261.281 128.917,259.816 131.198 C 259.604 131.527,259.310 132.607,259.162 133.598 C 258.899 135.352,258.248 137.487,257.546 138.895 C 257.356 139.277,257.200 139.912,257.200 140.306 C 257.200 140.700,256.957 141.377,256.660 141.811 C 256.363 142.245,255.999 143.095,255.852 143.700 C 255.705 144.305,255.408 144.800,255.192 144.800 C 254.977 144.800,254.800 145.042,254.800 145.337 C 254.800 145.632,254.352 146.667,253.805 147.637 C 253.258 148.607,252.692 149.670,252.547 150.000 C 252.402 150.330,251.589 151.537,250.742 152.683 C 249.894 153.828,249.200 154.863,249.200 154.983 C 249.200 155.102,248.885 155.535,248.500 155.945 C 248.115 156.355,246.900 157.742,245.800 159.028 C 244.700 160.315,243.518 161.645,243.173 161.984 C 241.774 163.357,238.736 166.000,238.555 166.000 C 238.449 166.000,237.965 166.409,237.481 166.909 C 236.476 167.945,232.537 170.626,230.800 171.455 C 230.470 171.613,230.110 171.845,230.000 171.971 C 229.622 172.402,227.136 173.600,226.617 173.600 C 226.331 173.600,225.874 173.870,225.600 174.200 C 225.326 174.530,224.751 174.800,224.322 174.800 C 223.894 174.800,223.273 175.070,222.943 175.400 C 222.613 175.730,221.942 176.000,221.451 176.000 C 220.961 176.000,220.389 176.170,220.180 176.377 C 219.776 176.778,217.402 177.436,214.327 178.000 C 213.296 178.189,212.126 178.513,211.727 178.721 C 209.401 179.929,190.599 179.929,188.273 178.721 C 187.874 178.513,186.704 178.189,185.673 178.000 C 182.598 177.436,180.224 176.778,179.820 176.377 C 179.611 176.170,179.048 176.000,178.569 176.000 C 178.090 176.000,177.474 175.730,177.200 175.400 C 176.926 175.070,176.296 174.800,175.800 174.800 C 175.304 174.800,174.674 174.530,174.400 174.200 C 174.126 173.870,173.657 173.600,173.358 173.600 C 173.059 173.600,171.686 172.913,170.307 172.074 C 168.928 171.235,167.485 170.430,167.100 170.287 C 166.715 170.143,166.400 169.839,166.400 169.613 C 166.400 169.386,166.225 169.200,166.012 169.200 C 165.465 169.200,162.000 166.715,162.000 166.323 C 162.000 166.145,161.816 166.000,161.591 166.000 C 159.734 166.000,146.400 150.042,146.400 147.820 C 146.400 147.533,146.130 147.074,145.800 146.800 C 145.470 146.526,145.200 146.081,145.200 145.811 C 145.200 145.540,144.771 144.512,144.246 143.525 C 143.722 142.539,143.168 141.164,143.015 140.470 C 142.863 139.777,142.572 139.106,142.369 138.981 C 142.166 138.855,141.994 138.268,141.987 137.676 C 141.980 137.084,141.710 136.251,141.387 135.824 C 141.064 135.396,140.800 134.307,140.800 133.404 C 140.800 132.500,140.589 131.549,140.331 131.291 C 138.731 129.691,138.732 109.108,140.331 106.126 C 140.589 105.646,140.800 104.645,140.800 103.903 C 140.800 103.160,141.064 102.204,141.387 101.776 C 141.710 101.349,141.980 100.601,141.987 100.114 C 142.000 99.223,142.505 97.904,144.254 94.194 C 144.774 93.091,145.200 91.988,145.200 91.743 C 145.200 91.498,145.470 91.074,145.800 90.800 C 146.130 90.526,146.400 89.964,146.400 89.551 C 146.400 89.138,146.568 88.800,146.773 88.800 C 146.978 88.800,147.270 88.411,147.421 87.935 C 148.392 84.874,156.920 74.982,161.775 71.284 C 163.109 70.268,164.290 69.337,164.400 69.215 C 165.175 68.353,170.537 65.222,174.000 63.610 C 174.990 63.149,176.113 62.598,176.495 62.386 C 176.877 62.174,177.530 62.000,177.946 62.000 C 178.362 62.000,178.926 61.730,179.200 61.400 C 179.474 61.070,180.291 60.800,181.016 60.800 C 181.740 60.800,182.395 60.616,182.470 60.391 C 182.611 59.966,184.558 59.535,190.539 58.606 C 192.485 58.303,194.195 57.938,194.339 57.794 C 194.746 57.386,206.227 57.889,209.869 58.474 M214.803 216.823 C 215.571 217.056,217.910 217.409,220.000 217.608 C 224.971 218.081,230.261 218.922,230.636 219.300 C 230.799 219.465,231.758 219.601,232.767 219.602 C 233.775 219.604,235.116 219.874,235.746 220.202 C 236.376 220.531,237.603 220.800,238.472 220.800 C 239.341 220.800,240.446 221.015,240.926 221.277 C 241.407 221.539,242.610 221.888,243.600 222.051 C 246.185 222.478,249.484 223.350,249.834 223.700 C 249.998 223.865,250.598 224.001,251.167 224.002 C 251.735 224.004,252.716 224.274,253.346 224.602 C 253.976 224.931,254.876 225.201,255.346 225.202 C 255.816 225.204,256.716 225.474,257.346 225.802 C 257.976 226.131,258.876 226.406,259.346 226.413 C 259.816 226.420,260.549 226.690,260.976 227.013 C 261.404 227.336,262.248 227.600,262.853 227.600 C 263.458 227.600,264.055 227.766,264.181 227.969 C 264.306 228.172,264.986 228.465,265.691 228.620 C 267.033 228.915,267.357 229.042,269.532 230.132 C 270.265 230.500,271.106 230.800,271.400 230.800 C 271.694 230.800,272.445 231.058,273.068 231.374 C 275.221 232.465,278.603 233.952,279.500 234.203 C 279.995 234.341,280.400 234.622,280.400 234.827 C 280.400 235.032,280.662 235.200,280.983 235.200 C 281.665 235.200,288.965 238.991,291.800 240.818 C 292.460 241.243,293.270 241.714,293.600 241.864 C 296.968 243.396,309.868 254.690,312.000 257.974 C 312.330 258.482,312.790 259.101,313.022 259.349 C 313.255 259.597,313.572 260.070,313.727 260.400 C 313.882 260.730,314.365 261.540,314.800 262.200 C 315.235 262.860,315.706 263.670,315.846 264.000 C 315.987 264.330,316.529 265.534,317.051 266.675 C 317.573 267.817,318.006 269.167,318.014 269.675 C 318.022 270.184,318.286 271.050,318.600 271.600 C 319.259 272.752,319.401 277.392,318.799 278.117 C 317.700 279.442,314.924 283.485,314.691 284.100 C 314.545 284.485,314.239 284.800,314.013 284.800 C 313.786 284.800,313.600 285.055,313.600 285.367 C 313.600 285.678,313.464 285.993,313.297 286.067 C 313.130 286.140,312.375 287.010,311.619 288.000 C 310.863 288.990,309.964 290.087,309.622 290.437 C 309.280 290.787,308.280 291.944,307.400 293.007 C 303.654 297.534,300.246 301.051,295.390 305.400 C 293.670 306.940,292.037 308.425,291.760 308.700 C 291.483 308.975,291.169 309.200,291.062 309.200 C 290.955 309.200,290.095 309.920,289.151 310.800 C 288.208 311.680,287.305 312.400,287.146 312.400 C 286.987 312.400,286.619 312.628,286.329 312.906 C 285.122 314.060,282.456 316.000,282.076 316.000 C 281.851 316.000,281.607 316.154,281.533 316.343 C 281.355 316.802,276.055 320.400,275.557 320.400 C 275.342 320.400,274.680 320.850,274.087 321.400 C 273.493 321.950,272.794 322.400,272.533 322.400 C 272.271 322.400,271.819 322.625,271.529 322.900 C 271.238 323.175,270.190 323.818,269.200 324.329 C 268.210 324.840,265.693 326.145,263.607 327.229 C 261.520 328.313,259.607 329.200,259.356 329.200 C 259.104 329.200,258.674 329.470,258.400 329.800 C 258.126 330.130,257.474 330.400,256.951 330.400 C 256.428 330.400,256.000 330.542,256.000 330.715 C 256.000 330.888,254.723 331.472,253.163 332.013 C 251.602 332.554,250.242 333.132,250.139 333.298 C 250.037 333.464,249.548 333.600,249.053 333.600 C 248.558 333.600,247.804 333.864,247.376 334.187 C 246.949 334.510,246.150 334.786,245.600 334.800 C 245.050 334.814,244.251 335.090,243.824 335.413 C 243.396 335.736,242.652 336.000,242.169 336.000 C 241.686 336.000,240.776 336.269,240.146 336.598 C 239.516 336.926,238.516 337.196,237.924 337.198 C 237.332 337.199,236.736 337.380,236.600 337.600 C 236.464 337.820,235.688 338.006,234.876 338.014 C 234.064 338.022,232.950 338.286,232.400 338.600 C 231.850 338.914,230.657 339.178,229.749 339.186 C 228.841 339.194,227.451 339.470,226.662 339.800 C 225.872 340.130,224.308 340.400,223.187 340.400 C 222.065 340.400,220.805 340.583,220.386 340.808 C 217.194 342.516,182.806 342.516,179.614 340.808 C 179.195 340.583,177.935 340.400,176.813 340.400 C 175.692 340.400,174.128 340.130,173.338 339.800 C 172.549 339.470,171.150 339.200,170.231 339.200 C 169.312 339.200,168.374 339.014,168.146 338.786 C 167.919 338.559,166.848 338.210,165.766 338.011 C 162.295 337.372,159.810 336.725,159.420 336.358 C 159.211 336.161,158.576 336.000,158.009 336.000 C 157.442 336.000,156.623 335.756,156.189 335.458 C 155.755 335.160,154.950 334.818,154.400 334.699 C 152.695 334.328,148.447 332.721,144.400 330.917 C 142.167 329.921,140.646 329.268,140.000 329.028 C 139.670 328.905,139.130 328.645,138.800 328.450 C 138.470 328.255,137.480 327.733,136.600 327.290 C 131.670 324.807,128.951 323.355,128.571 323.000 C 128.334 322.780,127.479 322.244,126.671 321.809 C 125.862 321.374,125.200 320.879,125.200 320.709 C 125.200 320.539,124.849 320.400,124.420 320.400 C 123.991 320.400,123.496 320.161,123.320 319.870 C 123.144 319.578,122.730 319.219,122.400 319.072 C 121.384 318.620,119.709 317.482,118.615 316.500 C 118.308 316.225,117.935 316.000,117.786 316.000 C 117.515 316.000,114.667 313.858,113.671 312.906 C 113.381 312.628,113.021 312.398,112.871 312.395 C 112.722 312.392,111.870 311.717,110.978 310.895 C 110.086 310.073,108.466 308.690,107.378 307.821 C 104.911 305.853,94.737 295.679,92.593 293.037 C 91.717 291.957,90.719 290.787,90.376 290.437 C 89.283 289.320,82.000 279.267,82.000 278.875 C 82.000 278.668,81.730 278.274,81.400 278.000 C 80.586 277.325,80.577 272.847,81.387 271.776 C 81.710 271.349,81.980 270.503,81.987 269.895 C 81.994 269.287,82.165 268.477,82.366 268.095 C 82.567 267.713,83.383 266.050,84.179 264.400 C 87.261 258.012,100.458 244.000,103.393 244.000 C 103.615 244.000,104.034 243.690,105.314 242.578 C 105.581 242.345,106.070 242.028,106.400 241.873 C 106.730 241.718,107.540 241.245,108.200 240.823 C 111.123 238.951,118.388 235.200,119.089 235.200 C 119.370 235.200,119.600 235.020,119.600 234.800 C 119.600 234.580,119.825 234.399,120.100 234.398 C 120.375 234.398,121.680 233.858,123.000 233.200 C 124.320 232.542,125.693 232.002,126.051 232.002 C 126.409 232.001,126.926 231.730,127.200 231.400 C 127.474 231.070,128.081 230.794,128.549 230.787 C 129.017 230.780,129.749 230.510,130.176 230.187 C 130.604 229.864,131.281 229.600,131.682 229.600 C 132.083 229.600,132.723 229.432,133.105 229.226 C 134.970 228.221,136.605 227.600,137.385 227.600 C 137.859 227.600,138.596 227.336,139.024 227.013 C 139.451 226.690,140.184 226.420,140.654 226.413 C 141.124 226.406,142.024 226.131,142.654 225.802 C 143.284 225.474,144.184 225.204,144.654 225.202 C 145.124 225.201,146.024 224.931,146.654 224.602 C 147.284 224.274,148.265 224.004,148.833 224.002 C 149.402 224.001,150.002 223.865,150.166 223.700 C 150.516 223.350,153.815 222.478,156.400 222.051 C 157.390 221.888,158.593 221.539,159.074 221.277 C 159.554 221.015,160.659 220.800,161.528 220.800 C 162.397 220.800,163.624 220.531,164.254 220.202 C 164.884 219.874,166.167 219.604,167.105 219.602 C 168.043 219.601,169.123 219.438,169.505 219.240 C 170.315 218.820,175.073 218.083,180.200 217.584 C 182.180 217.391,184.340 217.061,185.000 216.851 C 186.690 216.313,213.038 216.289,214.803 216.823 " stroke="none" fill="#e4e4e4" fill-rule="evenodd"></path><path id="path2" d="M198.512 58.295 C 199.564 58.377,201.184 58.376,202.112 58.292 C 203.040 58.208,202.180 58.141,200.200 58.142 C 198.220 58.143,197.460 58.212,198.512 58.295 M194.500 58.676 C 194.885 58.776,195.515 58.776,195.900 58.676 C 196.285 58.575,195.970 58.493,195.200 58.493 C 194.430 58.493,194.115 58.575,194.500 58.676 M204.500 58.676 C 204.885 58.776,205.515 58.776,205.900 58.676 C 206.285 58.575,205.970 58.493,205.200 58.493 C 204.430 58.493,204.115 58.575,204.500 58.676 M242.600 76.000 C 244.128 77.540,245.469 78.800,245.579 78.800 C 245.689 78.800,244.528 77.540,243.000 76.000 C 241.472 74.460,240.131 73.200,240.021 73.200 C 239.911 73.200,241.072 74.460,242.600 76.000 M156.786 76.300 L 154.600 78.600 156.900 76.414 C 159.037 74.382,159.383 74.000,159.086 74.000 C 159.024 74.000,157.989 75.035,156.786 76.300 M247.008 80.900 C 247.867 81.945,248.634 82.800,248.712 82.800 C 248.998 82.800,247.261 80.578,246.366 79.800 C 245.860 79.360,246.149 79.855,247.008 80.900 M260.101 113.000 C 260.105 113.880,260.187 114.193,260.283 113.695 C 260.379 113.198,260.375 112.478,260.275 112.095 C 260.175 111.713,260.096 112.120,260.101 113.000 M139.709 114.000 C 139.709 114.990,139.787 115.395,139.882 114.900 C 139.978 114.405,139.978 113.595,139.882 113.100 C 139.787 112.605,139.709 113.010,139.709 114.000 M139.709 123.600 C 139.709 124.590,139.787 124.995,139.882 124.500 C 139.978 124.005,139.978 123.195,139.882 122.700 C 139.787 122.205,139.709 122.610,139.709 123.600 M260.101 124.600 C 260.105 125.480,260.187 125.793,260.283 125.295 C 260.379 124.798,260.375 124.078,260.275 123.695 C 260.175 123.313,260.096 123.720,260.101 124.600 M242.585 161.700 L 240.600 163.800 242.700 161.815 C 244.651 159.971,244.983 159.600,244.685 159.600 C 244.622 159.600,243.677 160.545,242.585 161.700 M209.800 178.400 C 209.296 178.617,209.222 178.744,209.600 178.744 C 209.930 178.744,210.560 178.589,211.000 178.400 C 211.504 178.183,211.578 178.056,211.200 178.056 C 210.870 178.056,210.240 178.211,209.800 178.400 M193.705 179.087 C 194.314 179.179,195.214 179.177,195.705 179.082 C 196.197 178.987,195.700 178.911,194.600 178.914 C 193.500 178.917,193.097 178.995,193.705 179.087 M204.505 179.087 C 205.114 179.179,206.014 179.177,206.505 179.082 C 206.997 178.987,206.500 178.911,205.400 178.914 C 204.300 178.917,203.897 178.995,204.505 179.087 M196.900 216.697 C 198.605 216.772,201.395 216.772,203.100 216.697 C 204.805 216.622,203.410 216.561,200.000 216.561 C 196.590 216.561,195.195 216.622,196.900 216.697 M188.705 217.083 C 189.202 217.179,189.922 217.175,190.305 217.075 C 190.687 216.975,190.280 216.896,189.400 216.901 C 188.520 216.905,188.207 216.987,188.705 217.083 M210.100 217.076 C 210.485 217.176,211.115 217.176,211.500 217.076 C 211.885 216.975,211.570 216.893,210.800 216.893 C 210.030 216.893,209.715 216.975,210.100 217.076 M181.105 217.883 C 181.602 217.979,182.322 217.975,182.705 217.875 C 183.087 217.775,182.680 217.696,181.800 217.701 C 180.920 217.705,180.607 217.787,181.105 217.883 M217.505 217.883 C 218.002 217.979,218.722 217.975,219.105 217.875 C 219.487 217.775,219.080 217.696,218.200 217.701 C 217.320 217.705,217.007 217.787,217.505 217.883 M177.000 218.400 C 175.981 218.838,177.032 218.838,178.400 218.400 C 179.204 218.143,179.243 218.077,178.600 218.068 C 178.160 218.062,177.440 218.211,177.000 218.400 M221.600 218.400 C 222.968 218.838,224.019 218.838,223.000 218.400 C 222.560 218.211,221.840 218.062,221.400 218.068 C 220.757 218.077,220.796 218.143,221.600 218.400 M105.000 243.435 L 103.800 244.466 105.100 243.606 C 105.815 243.133,106.400 242.668,106.400 242.573 C 106.400 242.273,106.231 242.378,105.000 243.435 M96.175 250.100 L 95.000 251.400 96.300 250.225 C 97.512 249.130,97.784 248.800,97.475 248.800 C 97.406 248.800,96.821 249.385,96.175 250.100 M81.449 273.015 C 81.312 273.373,81.215 273.966,81.234 274.333 C 81.253 274.700,81.427 274.469,81.621 273.820 C 81.998 272.558,81.865 271.933,81.449 273.015 M81.202 277.033 C 81.203 277.235,81.668 277.940,82.235 278.600 L 83.266 279.800 82.363 278.400 C 81.204 276.604,81.200 276.599,81.202 277.033 M313.200 284.800 C 312.730 285.460,312.436 286.000,312.546 286.000 C 312.656 286.000,313.130 285.460,313.600 284.800 C 314.070 284.140,314.364 283.600,314.254 283.600 C 314.144 283.600,313.670 284.140,313.200 284.800 M96.400 296.600 C 97.146 297.370,97.847 298.000,97.957 298.000 C 98.067 298.000,97.546 297.370,96.800 296.600 C 96.054 295.830,95.353 295.200,95.243 295.200 C 95.133 295.200,95.654 295.830,96.400 296.600 M299.986 300.300 L 297.800 302.600 300.100 300.414 C 302.237 298.382,302.583 298.000,302.286 298.000 C 302.224 298.000,301.189 299.035,299.986 300.300 M104.400 304.600 C 105.146 305.370,105.847 306.000,105.957 306.000 C 106.067 306.000,105.546 305.370,104.800 304.600 C 104.054 303.830,103.353 303.200,103.243 303.200 C 103.133 303.200,103.654 303.830,104.400 304.600 M294.175 305.700 L 293.000 307.000 294.300 305.825 C 295.015 305.179,295.600 304.594,295.600 304.525 C 295.600 304.216,295.270 304.488,294.175 305.700 M115.600 313.746 C 115.600 313.856,116.140 314.330,116.800 314.800 C 117.460 315.270,118.000 315.564,118.000 315.454 C 118.000 315.344,117.460 314.870,116.800 314.400 C 116.140 313.930,115.600 313.636,115.600 313.746 M150.400 333.000 C 150.950 333.314,151.670 333.571,152.000 333.570 C 152.330 333.569,151.994 333.306,151.254 332.984 C 149.551 332.245,149.094 332.253,150.400 333.000 M224.200 339.600 C 223.696 339.817,223.622 339.944,224.000 339.944 C 224.330 339.944,224.960 339.789,225.400 339.600 C 225.904 339.383,225.978 339.256,225.600 339.256 C 225.270 339.256,224.640 339.411,224.200 339.600 M220.100 340.276 C 220.485 340.376,221.115 340.376,221.500 340.276 C 221.885 340.175,221.570 340.093,220.800 340.093 C 220.030 340.093,219.715 340.175,220.100 340.276 M183.700 341.076 C 184.085 341.176,184.715 341.176,185.100 341.076 C 185.485 340.975,185.170 340.893,184.400 340.893 C 183.630 340.893,183.315 340.975,183.700 341.076 M190.900 341.487 C 191.505 341.578,192.495 341.578,193.100 341.487 C 193.705 341.395,193.210 341.320,192.000 341.320 C 190.790 341.320,190.295 341.395,190.900 341.487 M206.900 341.487 C 207.505 341.578,208.495 341.578,209.100 341.487 C 209.705 341.395,209.210 341.320,208.000 341.320 C 206.790 341.320,206.295 341.395,206.900 341.487 M197.300 341.897 C 198.785 341.974,201.215 341.974,202.700 341.897 C 204.185 341.820,202.970 341.757,200.000 341.757 C 197.030 341.757,195.815 341.820,197.300 341.897 " stroke="none" fill="#c4c4c4" fill-rule="evenodd"></path><path id="path3" d="M193.800 58.776 C 192.260 58.905,195.050 59.013,200.000 59.015 C 205.347 59.018,207.864 58.914,206.200 58.759 C 202.841 58.447,197.635 58.454,193.800 58.776 M186.800 59.806 C 183.820 60.487,182.236 61.139,183.476 61.175 C 183.958 61.189,184.464 61.020,184.600 60.800 C 184.736 60.580,185.422 60.386,186.124 60.369 C 186.826 60.352,188.120 60.101,189.000 59.811 C 191.017 59.146,189.703 59.144,186.800 59.806 M211.000 59.811 C 211.880 60.101,213.016 60.352,213.525 60.369 C 214.508 60.402,218.188 61.443,219.213 61.978 C 219.550 62.154,220.403 62.425,221.109 62.580 C 221.814 62.735,222.494 63.028,222.619 63.231 C 222.745 63.434,223.152 63.595,223.524 63.588 C 225.420 63.554,217.754 60.777,213.060 59.797 C 209.637 59.083,208.808 59.089,211.000 59.811 M180.000 61.800 C 179.365 62.163,179.227 62.377,179.620 62.386 C 179.961 62.394,180.411 62.237,180.620 62.039 C 180.829 61.840,181.360 61.591,181.800 61.485 L 182.600 61.293 181.800 61.261 C 181.360 61.243,180.550 61.486,180.000 61.800 M176.800 63.000 C 176.222 63.330,176.053 63.572,176.400 63.572 C 176.730 63.572,177.450 63.314,178.000 63.000 C 178.578 62.670,178.747 62.428,178.400 62.428 C 178.070 62.428,177.350 62.686,176.800 63.000 M172.156 65.188 C 168.249 67.292,165.883 68.817,166.136 69.069 C 166.252 69.186,166.948 68.823,167.681 68.264 C 168.415 67.704,170.496 66.505,172.307 65.598 C 175.296 64.103,176.136 63.549,175.300 63.628 C 175.135 63.644,173.720 64.346,172.156 65.188 M224.976 64.213 C 225.404 64.536,226.034 64.799,226.376 64.798 C 226.719 64.796,226.484 64.526,225.854 64.198 C 224.404 63.441,223.966 63.449,224.976 64.213 M227.200 65.181 C 227.200 65.382,227.605 65.674,228.100 65.831 C 228.925 66.092,233.935 69.075,234.400 69.582 C 234.510 69.702,235.230 70.243,236.000 70.784 C 238.529 72.561,243.613 77.333,245.624 79.818 C 246.166 80.487,246.877 81.198,247.205 81.397 C 249.255 82.644,241.239 74.458,237.400 71.384 C 233.651 68.382,227.200 64.459,227.200 65.181 M163.152 70.965 C 158.086 74.942,149.927 83.703,150.663 84.375 C 150.799 84.499,150.991 84.372,151.090 84.093 C 151.190 83.814,151.480 83.364,151.736 83.092 C 151.991 82.821,152.850 81.789,153.646 80.799 C 156.540 77.197,162.916 71.139,164.700 70.296 C 165.195 70.063,165.600 69.720,165.600 69.536 C 165.600 69.044,165.597 69.046,163.152 70.965 M248.253 83.051 C 248.658 83.683,249.217 84.438,249.495 84.729 C 249.773 85.019,250.000 85.424,250.000 85.629 C 250.000 85.833,250.191 86.000,250.425 86.000 C 250.659 86.000,250.257 85.175,249.533 84.167 C 248.046 82.096,247.130 81.297,248.253 83.051 M148.838 86.659 C 147.796 88.326,145.206 93.354,143.873 96.299 C 143.649 96.794,143.562 97.295,143.679 97.412 C 143.796 97.530,144.116 97.035,144.390 96.313 C 145.186 94.210,148.001 88.753,149.271 86.852 C 149.912 85.891,150.351 85.017,150.245 84.911 C 150.139 84.805,149.506 85.592,148.838 86.659 M252.006 88.503 C 251.997 88.971,254.129 92.804,254.302 92.631 C 254.387 92.547,254.090 91.785,253.643 90.939 C 252.636 89.031,252.014 88.106,252.006 88.503 M254.400 93.405 C 254.400 93.518,254.580 93.923,254.800 94.305 C 255.020 94.687,255.385 95.520,255.611 96.155 C 255.837 96.791,256.112 97.221,256.221 97.112 C 256.450 96.883,254.937 93.200,254.614 93.200 C 254.496 93.200,254.400 93.292,254.400 93.405 M256.416 98.224 C 256.407 98.676,256.664 99.396,256.987 99.824 C 257.742 100.821,257.752 100.442,257.016 98.746 C 256.585 97.753,256.427 97.616,256.416 98.224 M142.900 99.085 C 142.202 100.584,142.276 101.155,143.028 100.082 C 143.373 99.589,143.598 98.921,143.528 98.598 C 143.446 98.220,143.222 98.393,142.900 99.085 M257.632 102.000 C 257.630 102.550,257.886 103.450,258.200 104.000 C 258.939 105.292,258.944 104.633,258.212 102.600 C 257.755 101.332,257.634 101.207,257.632 102.000 M141.681 103.088 C 140.996 105.375,141.121 106.134,141.843 104.073 C 142.176 103.123,142.384 102.152,142.305 101.915 C 142.226 101.678,141.945 102.206,141.681 103.088 M259.011 107.400 C 259.885 114.378,260.073 119.118,259.657 123.700 C 259.412 126.395,259.121 129.320,259.011 130.200 C 258.862 131.387,258.980 131.180,259.464 129.400 C 260.400 125.963,260.400 111.637,259.464 108.200 C 258.980 106.420,258.862 106.213,259.011 107.400 M140.653 107.741 C 140.486 108.588,140.441 109.375,140.555 109.488 C 140.858 109.791,141.297 107.785,141.114 106.932 C 141.020 106.490,140.837 106.811,140.653 107.741 M139.852 115.500 C 139.722 118.305,139.765 122.220,139.949 124.200 C 140.236 127.306,140.290 126.607,140.341 119.100 C 140.407 109.334,140.207 107.861,139.852 115.500 M140.446 128.600 C 140.515 130.231,141.115 131.587,141.154 130.200 C 141.173 129.540,141.013 128.730,140.800 128.400 C 140.481 127.906,140.418 127.941,140.446 128.600 M141.218 132.654 C 141.208 133.124,141.463 134.114,141.784 134.854 C 142.541 136.597,142.562 135.482,141.812 133.400 C 141.439 132.365,141.229 132.102,141.218 132.654 M258.091 133.700 C 257.821 134.446,257.609 135.404,257.619 135.828 C 257.630 136.253,257.911 135.823,258.243 134.873 C 258.576 133.923,258.788 132.965,258.715 132.744 C 258.641 132.524,258.360 132.954,258.091 133.700 M142.402 136.654 C 142.398 137.395,143.567 139.859,143.584 139.146 C 143.593 138.786,143.331 137.976,143.002 137.346 C 142.674 136.716,142.404 136.404,142.402 136.654 M256.885 137.773 C 256.618 138.359,256.407 139.144,256.416 139.519 C 256.424 139.893,256.699 139.584,257.026 138.830 C 257.727 137.214,257.594 136.217,256.885 137.773 M143.614 140.054 C 143.606 140.194,143.863 140.914,144.184 141.654 C 144.506 142.394,144.769 142.730,144.770 142.400 C 144.772 141.824,143.643 139.534,143.614 140.054 M255.611 141.445 C 255.385 142.080,255.007 142.933,254.772 143.339 C 254.537 143.745,254.443 144.176,254.562 144.296 C 254.682 144.415,255.149 143.652,255.600 142.600 C 256.051 141.548,256.331 140.597,256.221 140.488 C 256.112 140.379,255.837 140.809,255.611 141.445 M144.800 143.351 C 144.800 144.205,149.976 152.957,150.293 152.640 C 150.423 152.511,150.253 152.089,149.915 151.702 C 149.283 150.978,147.203 147.337,145.914 144.700 C 145.284 143.410,144.800 142.824,144.800 143.351 M253.050 146.850 C 252.446 147.969,252.023 148.956,252.111 149.044 C 252.199 149.132,252.768 148.291,253.375 147.175 C 253.982 146.059,254.405 145.072,254.314 144.981 C 254.223 144.890,253.654 145.731,253.050 146.850 M250.591 151.071 C 250.156 151.879,249.614 152.734,249.388 152.971 C 249.161 153.207,248.091 154.570,247.011 156.000 C 243.679 160.412,232.831 170.000,231.171 170.000 C 230.967 170.000,230.800 170.176,230.800 170.391 C 230.800 171.511,239.577 164.782,243.480 160.669 C 247.439 156.497,252.559 149.600,251.696 149.600 C 251.523 149.600,251.026 150.262,250.591 151.071 M151.675 155.090 C 153.397 157.546,161.331 165.456,163.621 166.999 C 164.599 167.658,165.490 168.296,165.600 168.417 C 166.636 169.552,173.945 173.428,178.000 174.993 C 178.990 175.375,180.228 175.854,180.752 176.059 C 181.275 176.263,181.795 176.338,181.907 176.226 C 182.143 175.990,180.212 175.200,179.398 175.200 C 179.095 175.200,178.748 175.040,178.627 174.844 C 178.506 174.649,177.918 174.366,177.320 174.216 C 170.783 172.575,157.736 162.678,152.600 155.464 C 151.720 154.228,150.854 153.213,150.675 153.209 C 150.496 153.204,150.946 154.050,151.675 155.090 M226.401 172.631 C 224.532 173.604,223.198 174.400,223.437 174.400 C 223.926 174.400,228.575 172.156,229.789 171.334 C 231.350 170.277,229.735 170.895,226.401 172.631 M220.600 175.056 C 219.720 175.365,218.749 175.709,218.443 175.819 C 218.136 175.929,217.968 176.101,218.069 176.202 C 218.258 176.391,222.333 175.001,222.717 174.616 C 223.041 174.292,222.382 174.429,220.600 175.056 M184.000 177.021 C 186.251 177.730,186.986 177.712,185.400 176.986 C 184.740 176.683,183.750 176.440,183.200 176.445 C 182.496 176.451,182.733 176.621,184.000 177.021 M214.600 176.986 C 213.014 177.712,213.749 177.730,216.000 177.021 C 217.267 176.621,217.504 176.451,216.800 176.445 C 216.250 176.440,215.260 176.683,214.600 176.986 M188.600 178.053 C 189.480 178.252,191.010 178.504,192.000 178.612 L 193.800 178.811 191.800 178.223 C 190.700 177.900,189.170 177.648,188.400 177.664 L 187.000 177.692 188.600 178.053 M208.200 178.241 L 206.200 178.787 208.000 178.601 C 208.990 178.498,210.520 178.252,211.400 178.053 L 213.000 177.692 211.600 177.694 C 210.830 177.694,209.300 177.941,208.200 178.241 M198.100 179.094 C 199.145 179.176,200.855 179.176,201.900 179.094 C 202.945 179.012,202.090 178.944,200.000 178.944 C 197.910 178.944,197.055 179.012,198.100 179.094 M187.000 217.438 L 183.000 217.958 187.000 217.689 C 192.223 217.338,207.904 217.344,213.000 217.699 L 217.000 217.977 212.800 217.415 C 207.528 216.709,192.507 216.723,187.000 217.438 M179.126 218.207 C 179.013 218.321,177.858 218.569,176.560 218.758 C 174.307 219.087,174.281 219.103,176.000 219.113 C 178.224 219.126,182.523 218.123,180.567 218.048 C 179.888 218.021,179.240 218.093,179.126 218.207 M220.200 218.575 C 221.300 218.877,223.100 219.115,224.200 219.105 L 226.200 219.087 224.200 218.796 C 223.100 218.636,221.300 218.397,220.200 218.266 L 218.200 218.027 220.200 218.575 M171.541 219.393 C 171.435 219.499,170.370 219.763,169.174 219.979 L 167.000 220.374 169.428 220.200 C 170.764 220.105,172.294 219.853,172.828 219.639 L 173.800 219.251 172.767 219.225 C 172.198 219.211,171.647 219.287,171.541 219.393 M227.270 219.580 C 227.638 219.814,229.078 220.087,230.470 220.186 C 232.467 220.329,232.663 220.299,231.400 220.045 C 227.364 219.234,226.588 219.147,227.270 219.580 M164.800 220.800 L 163.800 221.120 164.800 221.154 C 165.350 221.173,166.070 221.013,166.400 220.800 C 167.164 220.306,166.342 220.306,164.800 220.800 M233.600 220.800 C 233.930 221.013,234.650 221.173,235.200 221.154 L 236.200 221.120 235.200 220.800 C 233.658 220.306,232.836 220.306,233.600 220.800 M160.000 221.825 C 159.091 222.169,158.880 222.361,159.400 222.371 C 159.840 222.381,160.920 222.129,161.800 221.812 C 163.007 221.377,163.155 221.243,162.400 221.265 C 161.850 221.282,160.770 221.534,160.000 221.825 M238.200 221.812 C 239.080 222.129,240.250 222.379,240.800 222.367 C 241.521 222.352,241.298 222.188,240.000 221.779 C 237.639 221.035,236.121 221.062,238.200 221.812 M155.000 223.011 C 154.117 223.302,153.758 223.550,154.200 223.563 C 154.640 223.577,155.720 223.329,156.600 223.012 C 158.597 222.292,157.182 222.292,155.000 223.011 M243.546 223.016 C 244.286 223.337,245.276 223.592,245.746 223.582 C 246.298 223.571,246.035 223.361,245.000 222.988 C 242.918 222.238,241.803 222.259,243.546 223.016 M151.487 223.846 C 151.351 223.982,150.646 224.233,149.920 224.405 C 148.833 224.663,148.777 224.722,149.600 224.741 C 150.695 224.766,153.393 223.685,152.367 223.632 C 152.018 223.615,151.622 223.711,151.487 223.846 M248.200 224.178 C 248.860 224.500,249.850 224.754,250.400 224.741 C 251.320 224.720,251.304 224.692,250.200 224.389 C 247.296 223.594,246.925 223.555,248.200 224.178 M251.778 225.165 C 251.903 225.366,252.768 225.656,253.702 225.810 C 254.636 225.964,255.580 226.229,255.800 226.399 C 256.020 226.569,256.830 226.839,257.600 227.000 C 258.370 227.161,259.216 227.466,259.481 227.679 C 259.745 227.892,260.277 228.005,260.663 227.931 C 261.254 227.817,258.778 226.916,253.040 225.156 C 251.596 224.713,251.499 224.713,251.778 225.165 M141.200 226.923 C 139.757 227.400,138.920 227.845,139.319 227.924 C 139.715 228.002,140.255 227.887,140.519 227.669 C 140.784 227.450,141.677 227.145,142.504 226.990 C 143.332 226.836,144.107 226.550,144.228 226.355 C 144.527 225.871,144.201 225.932,141.200 226.923 M136.980 228.361 C 136.771 228.560,136.240 228.809,135.800 228.915 C 135.020 229.103,135.020 229.108,135.824 229.154 C 136.276 229.179,136.996 228.936,137.424 228.613 C 137.851 228.290,138.011 228.020,137.780 228.013 C 137.549 228.006,137.189 228.163,136.980 228.361 M262.576 228.613 C 263.004 228.936,263.724 229.193,264.176 229.184 C 264.784 229.173,264.647 229.015,263.654 228.584 C 261.958 227.848,261.579 227.858,262.576 228.613 M133.000 229.814 C 132.037 230.255,131.963 230.367,132.624 230.382 C 133.076 230.392,133.796 230.136,134.224 229.813 C 135.187 229.084,134.593 229.085,133.000 229.814 M265.776 229.813 C 266.204 230.136,266.924 230.393,267.376 230.384 C 267.984 230.373,267.847 230.215,266.854 229.784 C 265.158 229.048,264.779 229.058,265.776 229.813 M128.000 231.800 C 127.420 232.132,127.252 232.372,127.600 232.373 C 127.930 232.374,128.549 232.110,128.976 231.787 C 129.964 231.040,129.315 231.048,128.000 231.800 M271.024 231.787 C 271.451 232.110,272.070 232.374,272.400 232.373 C 272.748 232.372,272.580 232.132,272.000 231.800 C 270.685 231.048,270.036 231.040,271.024 231.787 M125.024 233.013 C 124.476 233.427,124.417 233.596,124.824 233.587 C 125.141 233.580,125.749 233.310,126.176 232.987 C 126.724 232.573,126.783 232.404,126.376 232.413 C 126.059 232.420,125.451 232.690,125.024 233.013 M273.824 232.987 C 274.251 233.310,274.859 233.580,275.176 233.587 C 275.583 233.596,275.524 233.427,274.976 233.013 C 274.549 232.690,273.941 232.420,273.624 232.413 C 273.217 232.404,273.276 232.573,273.824 232.987 M118.071 236.239 C 115.140 237.689,112.811 238.945,112.895 239.029 C 112.979 239.113,115.557 237.931,118.624 236.402 C 121.691 234.874,124.020 233.618,123.800 233.612 C 123.580 233.606,121.002 234.788,118.071 236.239 M281.376 236.402 C 284.443 237.931,287.026 239.107,287.117 239.016 C 287.314 238.820,276.743 233.595,276.184 233.611 C 275.973 233.618,278.309 234.874,281.376 236.402 M109.800 240.635 C 106.139 242.821,105.515 243.249,105.707 243.440 C 105.804 243.537,106.967 242.893,108.292 242.008 C 109.617 241.124,110.881 240.400,111.101 240.400 C 111.322 240.400,111.726 240.130,112.000 239.800 C 112.709 238.946,112.490 239.029,109.800 240.635 M287.949 239.735 C 288.251 240.101,288.653 240.400,288.843 240.400 C 289.315 240.400,293.368 242.892,293.533 243.284 C 293.607 243.458,293.814 243.600,293.993 243.600 C 295.677 243.600,306.324 252.627,309.798 257.000 C 310.671 258.100,311.524 259.060,311.693 259.133 C 311.862 259.207,312.000 259.507,312.000 259.800 C 312.000 260.093,312.142 260.393,312.316 260.467 C 313.082 260.790,315.282 265.016,316.816 269.113 C 317.086 269.835,317.401 270.332,317.516 270.217 C 318.792 268.941,309.905 255.407,305.155 251.393 C 301.771 248.533,297.493 245.172,296.715 244.762 C 296.212 244.497,295.710 244.166,295.600 244.026 C 295.371 243.735,289.905 240.364,288.400 239.586 C 287.486 239.113,287.447 239.126,287.949 239.735 M103.236 244.846 C 97.080 249.109,86.578 259.200,88.299 259.200 C 88.500 259.200,89.245 258.392,89.954 257.404 C 92.225 254.242,96.815 250.017,102.300 246.039 C 104.772 244.246,105.572 243.553,105.100 243.613 C 105.045 243.620,104.206 244.175,103.236 244.846 M87.311 260.090 C 86.406 261.233,84.841 264.400,85.181 264.400 C 85.382 264.400,85.674 263.995,85.831 263.500 C 85.987 263.005,86.564 262.010,87.113 261.289 C 88.034 260.081,88.221 258.940,87.311 260.090 M84.070 265.806 C 83.795 266.410,83.652 266.986,83.753 267.086 C 84.024 267.358,84.875 265.624,84.711 265.132 C 84.633 264.900,84.345 265.203,84.070 265.806 M82.900 268.870 C 82.216 270.766,82.276 271.248,83.017 269.825 C 83.354 269.179,83.578 268.388,83.515 268.067 C 83.452 267.746,83.175 268.107,82.900 268.870 M317.804 272.600 C 317.913 273.480,318.105 274.740,318.230 275.400 C 318.427 276.442,316.314 280.510,314.803 282.000 C 314.691 282.110,313.979 283.100,313.221 284.200 C 312.462 285.300,311.736 286.290,311.607 286.400 C 311.478 286.510,310.659 287.495,309.786 288.588 C 306.998 292.084,306.661 292.470,303.200 296.132 C 299.782 299.750,295.085 304.374,293.079 306.098 C 292.486 306.608,292.000 307.162,292.000 307.329 C 292.000 307.665,293.898 306.011,298.342 301.800 C 306.078 294.470,318.813 278.344,318.792 275.905 C 318.788 275.407,318.519 274.100,318.195 273.000 C 317.636 271.106,317.615 271.085,317.804 272.600 M81.642 273.846 C 81.144 276.151,81.539 278.594,82.289 277.844 C 82.413 277.720,82.285 277.344,82.006 277.007 C 81.599 276.517,81.596 276.044,81.987 274.645 C 82.257 273.683,82.408 272.559,82.324 272.148 C 82.239 271.737,81.933 272.501,81.642 273.846 M83.442 280.000 C 85.081 282.709,87.681 286.052,87.944 285.789 C 88.072 285.661,88.000 285.431,87.785 285.278 C 87.569 285.125,86.944 284.326,86.396 283.503 C 85.848 282.679,85.265 282.004,85.100 282.003 C 84.935 282.001,84.795 281.775,84.789 281.500 C 84.783 281.225,84.233 280.370,83.565 279.600 L 82.352 278.200 83.442 280.000 M88.565 287.100 C 97.461 298.271,106.884 307.318,117.629 315.003 C 119.923 316.644,121.990 318.125,122.222 318.294 C 125.450 320.639,138.307 327.826,138.654 327.480 C 138.738 327.395,137.590 326.695,136.103 325.922 C 132.788 324.201,130.578 322.980,129.000 322.000 C 128.340 321.590,127.080 320.863,126.200 320.384 C 125.320 319.904,124.510 319.397,124.400 319.256 C 124.129 318.909,120.426 316.400,120.184 316.400 C 119.977 316.400,113.932 312.007,113.600 311.615 C 113.490 311.486,112.590 310.759,111.600 310.001 C 106.217 305.879,93.305 292.862,89.909 288.134 C 89.225 287.180,88.517 286.400,88.336 286.400 C 88.156 286.400,88.259 286.715,88.565 287.100 M290.400 308.448 C 289.850 308.900,288.860 309.720,288.200 310.269 C 287.540 310.818,285.155 312.618,282.900 314.269 C 280.645 315.920,278.800 317.342,278.800 317.431 C 278.800 317.903,290.134 309.485,291.156 308.252 C 291.880 307.381,291.616 307.449,290.400 308.448 M277.281 318.102 C 277.052 318.378,275.772 319.233,274.437 320.002 C 273.101 320.771,272.007 321.538,272.004 321.706 C 272.000 322.029,276.981 319.055,277.986 318.136 C 278.310 317.840,278.376 317.600,278.135 317.600 C 277.894 317.600,277.510 317.826,277.281 318.102 M270.154 322.577 C 269.701 322.895,266.956 324.360,264.054 325.833 C 261.152 327.306,258.853 328.586,258.944 328.677 C 259.123 328.857,269.523 323.580,270.925 322.598 C 271.394 322.269,271.598 322.000,271.378 322.000 C 271.158 322.000,270.607 322.260,270.154 322.577 M139.824 328.187 C 140.839 328.956,141.434 328.963,140.800 328.200 C 140.526 327.870,140.020 327.600,139.675 327.600 C 139.172 327.600,139.202 327.717,139.824 328.187 M141.600 328.940 C 141.600 329.017,142.815 329.571,144.300 330.172 C 145.785 330.772,147.333 331.442,147.739 331.660 C 148.145 331.877,148.574 331.960,148.691 331.843 C 148.892 331.641,148.544 331.469,145.200 330.124 C 144.430 329.815,143.487 329.390,143.105 329.181 C 142.415 328.802,141.600 328.672,141.600 328.940 M255.900 329.647 C 255.075 330.064,254.400 330.488,254.400 330.589 C 254.400 330.776,258.043 329.291,258.358 328.975 C 258.794 328.540,257.257 328.959,255.900 329.647 M251.600 331.377 C 251.050 331.683,250.009 332.152,249.287 332.420 C 248.565 332.688,248.070 333.004,248.188 333.121 C 248.305 333.238,248.806 333.143,249.301 332.910 C 249.795 332.676,251.100 332.111,252.200 331.655 C 253.300 331.199,253.840 330.825,253.400 330.824 C 252.960 330.822,252.150 331.071,251.600 331.377 M150.200 332.551 C 151.223 332.993,155.061 334.315,160.330 336.038 C 161.061 336.278,161.754 336.379,161.869 336.264 C 161.984 336.149,161.295 335.846,160.339 335.590 C 159.383 335.334,158.324 334.985,157.987 334.813 C 157.650 334.642,156.750 334.368,155.987 334.204 C 155.224 334.040,154.420 333.796,154.200 333.662 C 153.605 333.299,149.862 332.026,149.400 332.029 C 149.180 332.030,149.540 332.265,150.200 332.551 M245.200 333.833 C 243.876 334.568,244.749 334.556,246.454 333.816 C 247.337 333.432,247.525 333.239,247.000 333.255 C 246.560 333.268,245.750 333.528,245.200 333.833 M242.200 334.800 C 242.064 335.020,241.558 335.221,241.076 335.246 C 240.533 335.275,240.436 335.356,240.821 335.460 C 241.162 335.553,242.062 335.359,242.821 335.030 C 243.907 334.558,244.014 334.428,243.324 334.416 C 242.842 334.407,242.336 334.580,242.200 334.800 M238.400 336.000 C 237.867 336.345,237.867 336.388,238.400 336.388 C 238.730 336.388,239.270 336.213,239.600 336.000 C 240.133 335.655,240.133 335.612,239.600 335.612 C 239.270 335.612,238.730 335.787,238.400 336.000 M164.000 337.021 C 166.282 337.740,166.880 337.732,165.600 337.000 C 165.050 336.686,164.060 336.434,163.400 336.441 C 162.337 336.452,162.405 336.518,164.000 337.021 M234.600 336.986 C 233.014 337.712,233.749 337.730,236.000 337.021 C 237.267 336.621,237.504 336.451,236.800 336.445 C 236.250 336.440,235.260 336.683,234.600 336.986 M168.400 338.063 C 171.209 338.829,171.893 338.881,170.454 338.219 C 169.714 337.879,168.634 337.618,168.054 337.641 C 167.119 337.677,167.158 337.725,168.400 338.063 M229.400 338.249 C 228.064 338.899,228.743 338.842,231.600 338.063 C 232.998 337.683,232.998 337.682,231.800 337.673 C 231.140 337.669,230.060 337.928,229.400 338.249 M172.833 338.944 C 172.925 339.024,173.810 339.206,174.800 339.350 C 176.058 339.533,176.419 339.491,176.000 339.212 C 175.460 338.853,172.432 338.597,172.833 338.944 M224.000 339.165 C 223.670 339.352,221.859 339.630,219.976 339.782 C 218.092 339.935,216.292 340.240,215.976 340.462 C 215.574 340.743,215.944 340.783,217.200 340.593 C 218.190 340.444,220.170 340.162,221.600 339.967 C 223.030 339.771,224.920 339.449,225.800 339.252 L 227.400 338.892 226.000 338.858 C 225.230 338.840,224.330 338.978,224.000 339.165 M178.600 339.963 C 183.015 340.650,185.008 340.821,184.152 340.441 C 183.685 340.233,181.795 339.971,179.952 339.858 C 177.548 339.711,177.166 339.741,178.600 339.963 M192.658 341.330 C 196.650 341.512,203.310 341.511,207.458 341.329 C 214.401 341.023,213.824 340.997,200.200 340.998 C 186.805 341.000,186.089 341.031,192.658 341.330 " stroke="none" fill="#bcbcbc" fill-rule="evenodd"></path><path id="path4" d="M194.326 57.807 C 194.176 57.958,193.096 58.235,191.926 58.423 C 190.399 58.669,190.758 58.689,193.200 58.492 C 197.580 58.139,202.959 58.137,207.000 58.487 C 209.674 58.718,209.904 58.696,208.400 58.351 C 206.258 57.859,194.719 57.413,194.326 57.807 M186.400 59.230 C 185.850 59.419,184.725 59.678,183.900 59.805 C 183.075 59.932,182.400 60.227,182.400 60.461 C 182.400 60.707,182.694 60.766,183.100 60.600 C 183.485 60.443,185.060 60.048,186.600 59.722 C 188.140 59.395,189.475 59.054,189.567 58.964 C 189.864 58.671,187.428 58.875,186.400 59.230 M211.600 59.200 C 213.036 59.660,213.684 59.660,213.400 59.200 C 213.264 58.980,212.578 58.818,211.876 58.840 C 210.657 58.878,210.645 58.894,211.600 59.200 M215.000 59.978 C 218.064 60.901,218.216 60.926,217.748 60.423 C 217.500 60.156,216.510 59.865,215.548 59.776 C 214.012 59.635,213.945 59.660,215.000 59.978 M179.200 61.400 C 178.667 62.042,179.186 62.242,179.820 61.639 C 180.029 61.440,180.560 61.191,181.000 61.085 C 181.630 60.934,181.577 60.883,180.749 60.846 C 180.171 60.821,179.474 61.070,179.200 61.400 M219.000 61.089 C 219.440 61.198,220.029 61.472,220.310 61.700 C 220.590 61.928,220.945 61.989,221.098 61.835 C 221.516 61.417,220.338 60.807,219.200 60.853 C 218.376 60.886,218.341 60.927,219.000 61.089 M176.400 62.410 C 176.070 62.609,174.990 63.150,174.000 63.610 C 170.541 65.220,165.176 68.352,164.400 69.215 C 164.290 69.337,163.109 70.268,161.775 71.284 C 156.920 74.982,148.392 84.874,147.421 87.935 C 147.270 88.411,146.978 88.800,146.773 88.800 C 146.568 88.800,146.400 89.102,146.400 89.470 C 146.400 89.839,147.514 88.444,148.875 86.370 C 152.118 81.428,156.091 76.687,159.252 73.983 C 160.654 72.785,161.890 71.709,162.000 71.592 C 162.685 70.863,165.585 68.800,165.924 68.800 C 166.149 68.800,166.393 68.658,166.467 68.484 C 166.752 67.809,175.125 63.302,178.000 62.277 C 178.416 62.129,178.355 62.061,177.800 62.055 C 177.360 62.051,176.730 62.210,176.400 62.410 M222.000 62.140 C 222.000 62.217,223.215 62.793,224.700 63.419 C 227.689 64.680,233.721 68.211,236.199 70.149 C 237.078 70.837,238.248 71.750,238.799 72.177 C 239.349 72.605,241.678 74.855,243.973 77.177 C 246.268 79.500,247.738 80.811,247.240 80.091 C 246.062 78.391,241.477 73.785,239.191 72.006 C 238.206 71.240,237.220 70.407,237.000 70.155 C 236.657 69.762,233.687 67.774,231.000 66.138 C 228.078 64.358,222.000 61.658,222.000 62.140 M250.115 84.720 C 252.015 87.537,252.734 88.729,254.263 91.600 C 254.555 92.150,254.796 92.390,254.798 92.132 C 254.801 91.544,253.502 89.045,253.100 88.867 C 252.935 88.793,252.800 88.525,252.800 88.270 C 252.800 87.759,249.977 83.479,249.500 83.267 C 249.335 83.193,249.200 82.898,249.200 82.609 C 249.200 82.321,248.938 81.985,248.618 81.862 C 248.298 81.740,248.972 83.025,250.115 84.720 M145.673 90.887 C 145.413 91.147,145.200 91.546,145.200 91.774 C 145.200 92.002,144.774 93.091,144.254 94.194 C 142.545 97.818,142.000 99.218,142.023 99.914 C 142.036 100.291,142.576 99.250,143.222 97.600 C 143.869 95.950,144.853 93.720,145.409 92.643 C 146.436 90.657,146.530 90.030,145.673 90.887 M254.800 92.925 C 254.800 92.994,255.186 93.849,255.658 94.825 C 256.130 95.801,256.837 97.500,257.229 98.600 C 257.621 99.700,257.952 100.330,257.965 100.000 C 257.992 99.302,256.883 95.994,256.424 95.403 C 256.251 95.181,255.992 94.505,255.848 93.900 C 255.645 93.054,254.800 92.267,254.800 92.925 M258.020 101.000 C 258.016 101.220,258.271 102.120,258.588 103.000 C 259.045 104.268,259.166 104.393,259.168 103.600 C 259.170 103.050,258.914 102.150,258.600 101.600 C 258.286 101.050,258.025 100.780,258.020 101.000 M141.232 101.939 C 140.995 102.384,140.825 103.344,140.854 104.074 C 140.898 105.130,140.942 105.196,141.071 104.400 C 141.160 103.850,141.436 102.995,141.684 102.501 C 142.249 101.372,141.821 100.840,141.232 101.939 M140.039 106.860 C 139.798 107.553,139.626 109.128,139.659 110.360 L 139.718 112.600 140.001 110.400 C 140.157 109.190,140.423 107.615,140.593 106.900 C 140.986 105.238,140.614 105.211,140.039 106.860 M259.393 106.600 C 259.556 107.260,259.839 108.700,260.021 109.800 C 260.346 111.759,260.351 111.745,260.258 109.101 C 260.201 107.485,259.949 106.201,259.629 105.901 C 259.190 105.488,259.149 105.610,259.393 106.600 M139.050 114.050 C 138.688 115.859,138.796 122.860,139.200 123.800 C 139.414 124.297,139.554 122.369,139.572 118.700 C 139.600 112.711,139.499 111.806,139.050 114.050 M260.446 118.600 C 260.423 122.608,260.541 124.401,260.800 124.000 C 261.260 123.288,261.260 115.037,260.800 113.600 C 260.607 112.997,260.466 114.981,260.446 118.600 M139.746 127.893 C 139.796 129.709,140.026 130.974,140.364 131.293 C 140.812 131.715,140.849 131.598,140.583 130.600 C 140.406 129.940,140.128 128.410,139.964 127.200 C 139.673 125.045,139.669 125.060,139.746 127.893 M259.915 128.000 C 259.758 129.210,259.522 130.650,259.392 131.200 C 259.162 132.167,259.175 132.163,259.797 131.085 C 260.222 130.349,260.400 129.263,260.320 127.885 L 260.200 125.800 259.915 128.000 M140.841 133.624 C 140.818 134.406,141.083 135.396,141.430 135.824 C 142.123 136.679,142.131 136.759,141.211 133.400 L 140.882 132.200 140.841 133.624 M258.728 133.800 C 258.589 134.460,258.358 135.450,258.214 136.000 C 257.967 136.951,257.986 136.945,258.601 135.878 C 258.958 135.261,259.189 134.271,259.115 133.678 L 258.981 132.600 258.728 133.800 M142.023 137.876 C 142.011 138.358,142.166 138.855,142.369 138.981 C 142.572 139.106,142.863 139.777,143.015 140.470 C 143.168 141.164,143.722 142.539,144.246 143.525 C 144.771 144.512,145.200 145.540,145.200 145.811 C 145.200 146.081,145.470 146.526,145.800 146.800 C 146.624 147.484,146.559 147.182,145.399 144.937 C 144.848 143.872,143.869 141.650,143.222 140.000 C 142.576 138.350,142.036 137.394,142.023 137.876 M257.222 138.805 C 256.909 139.792,256.236 141.489,255.727 142.575 C 254.663 144.843,254.673 144.800,255.192 144.800 C 255.408 144.800,255.705 144.305,255.852 143.700 C 255.999 143.095,256.363 142.245,256.660 141.811 C 256.957 141.377,257.200 140.648,257.200 140.191 C 257.200 139.734,257.397 139.163,257.638 138.922 C 257.878 138.682,258.011 138.153,257.933 137.747 C 257.843 137.279,257.583 137.666,257.222 138.805 M252.600 148.869 C 251.500 150.839,250.330 152.754,250.000 153.125 C 249.670 153.496,248.874 154.575,248.230 155.522 C 247.587 156.469,245.517 158.824,243.630 160.755 C 240.751 163.702,239.082 165.162,235.000 168.307 C 234.323 168.828,228.665 172.209,227.501 172.788 C 226.896 173.089,226.490 173.423,226.598 173.532 C 226.789 173.722,229.595 172.435,230.000 171.971 C 230.110 171.845,230.470 171.613,230.800 171.455 C 232.537 170.626,236.476 167.945,237.481 166.909 C 237.965 166.409,238.449 166.000,238.555 166.000 C 238.736 166.000,241.774 163.357,243.173 161.984 C 243.518 161.645,244.700 160.315,245.800 159.028 C 246.900 157.742,248.115 156.355,248.500 155.945 C 248.885 155.535,249.200 155.102,249.200 154.983 C 249.200 154.863,249.876 153.828,250.702 152.683 C 252.463 150.240,252.867 149.584,254.026 147.279 C 255.601 144.149,254.635 145.225,252.600 148.869 M146.424 147.871 C 146.320 149.948,159.749 166.000,161.591 166.000 C 161.816 166.000,162.000 166.145,162.000 166.323 C 162.000 166.716,165.622 169.312,165.851 169.083 C 165.940 168.993,164.795 168.007,163.307 166.892 C 157.092 162.236,152.295 156.752,146.924 148.162 C 146.661 147.743,146.436 147.612,146.424 147.871 M166.400 169.617 C 166.400 169.841,166.715 170.143,167.100 170.287 C 167.485 170.430,168.943 171.244,170.340 172.094 C 171.737 172.944,173.059 173.580,173.277 173.508 C 173.496 173.435,173.163 173.113,172.537 172.793 C 171.912 172.473,170.275 171.536,168.900 170.710 C 167.525 169.884,166.400 169.392,166.400 169.617 M174.400 174.200 C 174.674 174.530,175.281 174.799,175.749 174.798 C 176.487 174.795,176.447 174.715,175.454 174.198 C 174.010 173.444,173.773 173.445,174.400 174.200 M224.400 174.233 C 223.463 174.754,223.453 174.789,224.251 174.794 C 224.719 174.797,225.326 174.530,225.600 174.200 C 226.203 173.473,225.747 173.486,224.400 174.233 M177.200 175.400 C 177.474 175.730,178.090 176.000,178.569 176.000 C 179.048 176.000,179.611 176.170,179.820 176.377 C 180.214 176.768,182.912 177.533,185.000 177.845 C 186.278 178.036,184.481 177.358,180.400 176.109 C 179.190 175.739,178.029 175.293,177.820 175.118 C 177.155 174.561,176.682 174.776,177.200 175.400 M222.180 175.127 C 221.971 175.306,220.180 175.952,218.200 176.561 C 213.802 177.914,213.476 178.044,215.000 177.832 C 216.727 177.592,219.514 176.851,220.314 176.419 C 220.691 176.215,221.495 175.944,222.100 175.817 C 222.705 175.689,223.200 175.408,223.200 175.192 C 223.200 174.715,222.696 174.683,222.180 175.127 M187.946 178.584 C 188.686 178.923,190.126 179.176,191.146 179.147 L 193.000 179.093 191.200 178.766 C 190.210 178.586,188.770 178.333,188.000 178.203 L 186.600 177.967 187.946 178.584 M211.493 178.241 C 211.361 178.373,210.296 178.620,209.126 178.791 L 207.000 179.100 208.854 179.150 C 209.874 179.178,211.314 178.937,212.054 178.616 C 213.063 178.178,213.191 178.027,212.567 178.016 C 212.108 178.007,211.625 178.108,211.493 178.241 M196.200 179.600 C 196.860 179.768,198.570 179.905,200.000 179.905 C 201.430 179.905,203.140 179.768,203.800 179.600 C 204.540 179.412,203.081 179.295,200.000 179.295 C 196.919 179.295,195.460 179.412,196.200 179.600 M184.200 217.043 L 182.200 217.591 184.800 217.346 C 186.230 217.211,188.930 216.971,190.800 216.813 L 194.200 216.527 190.200 216.511 C 187.999 216.502,185.300 216.742,184.200 217.043 M209.200 216.813 C 211.070 216.971,213.770 217.213,215.200 217.350 L 217.800 217.600 215.600 217.017 C 214.321 216.678,211.809 216.453,209.600 216.480 L 205.800 216.527 209.200 216.813 M176.722 217.811 C 176.606 217.928,175.721 218.192,174.755 218.398 L 173.000 218.773 175.000 218.591 C 176.100 218.491,177.810 218.250,178.800 218.055 L 180.600 217.700 178.767 217.650 C 177.758 217.623,176.838 217.695,176.722 217.811 M221.200 218.037 C 222.190 218.245,223.990 218.493,225.200 218.587 L 227.400 218.758 225.600 218.350 C 224.610 218.127,222.810 217.879,221.600 217.800 L 219.400 217.657 221.200 218.037 M169.400 219.200 C 169.114 219.663,170.155 219.663,171.600 219.200 C 172.498 218.912,172.450 218.876,171.124 218.840 C 170.312 218.818,169.536 218.980,169.400 219.200 M227.633 218.947 C 228.100 219.358,230.857 219.616,230.616 219.226 C 230.471 218.991,229.703 218.800,228.910 218.800 C 228.116 218.800,227.542 218.866,227.633 218.947 M164.500 220.012 C 163.230 220.523,163.379 220.948,164.700 220.583 C 165.305 220.416,166.520 220.149,167.400 219.990 L 169.000 219.700 167.200 219.675 C 166.210 219.662,164.995 219.813,164.500 220.012 M232.600 219.961 C 233.480 220.136,234.740 220.420,235.400 220.592 C 236.373 220.844,236.508 220.805,236.114 220.386 C 235.847 220.101,234.587 219.817,233.314 219.755 C 231.248 219.654,231.172 219.677,232.600 219.961 M158.800 221.436 L 157.800 222.044 159.000 221.800 C 159.660 221.666,160.830 221.407,161.600 221.224 L 163.000 220.892 161.400 220.860 C 160.520 220.843,159.350 221.102,158.800 221.436 M238.400 221.224 C 239.170 221.407,240.340 221.666,241.000 221.800 L 242.200 222.044 241.200 221.436 C 240.650 221.102,239.480 220.843,238.600 220.860 L 237.000 220.892 238.400 221.224 M153.600 222.625 C 152.830 222.916,151.806 223.165,151.324 223.177 C 150.842 223.190,150.336 223.380,150.200 223.600 C 150.064 223.820,149.525 224.000,149.002 224.000 C 147.962 224.000,145.791 224.725,146.052 224.985 C 146.141 225.075,147.471 224.804,149.007 224.383 C 150.543 223.962,152.970 223.321,154.400 222.959 C 155.830 222.597,157.075 222.233,157.167 222.150 C 157.571 221.786,154.867 222.146,153.600 222.625 M243.800 222.384 C 245.633 222.930,249.634 224.005,251.200 224.372 C 251.970 224.552,252.945 224.843,253.366 225.018 C 253.895 225.238,254.045 225.196,253.852 224.883 C 253.698 224.635,252.903 224.321,252.086 224.187 C 251.269 224.052,250.240 223.791,249.800 223.605 C 248.554 223.080,245.544 222.338,244.000 222.174 C 242.607 222.027,242.606 222.028,243.800 222.384 M142.842 225.634 C 141.179 226.299,142.241 226.485,144.061 225.847 C 145.340 225.399,145.535 225.240,144.800 225.244 C 144.250 225.248,143.369 225.423,142.842 225.634 M255.984 225.809 C 256.965 226.115,257.845 226.288,257.940 226.194 C 258.207 225.926,256.047 225.197,255.074 225.227 C 254.561 225.242,254.936 225.483,255.984 225.809 M139.024 227.013 C 138.029 227.765,138.725 227.766,140.454 227.016 C 141.679 226.484,141.710 226.431,140.800 226.428 C 140.250 226.427,139.451 226.690,139.024 227.013 M259.746 227.002 C 261.216 227.769,261.985 227.776,260.976 227.013 C 260.549 226.690,259.840 226.421,259.400 226.415 C 258.760 226.407,258.829 226.525,259.746 227.002 M135.600 228.024 C 135.270 228.231,134.480 228.585,133.845 228.811 C 133.209 229.037,132.771 229.304,132.870 229.404 C 133.058 229.591,137.135 228.198,137.517 227.816 C 137.887 227.447,136.234 227.626,135.600 228.024 M263.400 228.170 C 265.659 229.208,270.145 230.788,270.324 230.609 C 270.423 230.511,269.985 230.224,269.352 229.972 C 268.718 229.720,267.924 229.376,267.587 229.208 C 267.250 229.039,266.397 228.775,265.691 228.620 C 264.986 228.465,264.306 228.172,264.181 227.969 C 264.055 227.766,263.558 227.604,263.076 227.609 C 262.326 227.617,262.372 227.697,263.400 228.170 M130.176 230.187 C 129.749 230.510,129.017 230.780,128.549 230.787 C 128.081 230.794,127.474 231.070,127.200 231.400 C 126.634 232.082,126.891 232.168,127.905 231.635 C 128.287 231.435,129.500 230.901,130.600 230.448 C 131.741 229.979,132.246 229.620,131.776 229.613 C 131.324 229.606,130.604 229.864,130.176 230.187 M272.200 231.600 C 273.080 232.025,273.939 232.379,274.108 232.386 C 274.405 232.400,280.678 235.256,282.095 236.024 C 283.157 236.599,283.496 236.447,282.624 235.787 C 282.196 235.464,281.521 235.200,281.124 235.200 C 280.726 235.200,280.400 235.032,280.400 234.827 C 280.400 234.622,279.995 234.341,279.500 234.203 C 278.603 233.952,275.221 232.465,273.068 231.374 C 272.445 231.058,271.635 230.806,271.268 230.814 C 270.900 230.821,271.320 231.175,272.200 231.600 M122.800 233.247 C 121.590 233.876,120.375 234.393,120.100 234.395 C 119.825 234.398,119.600 234.580,119.600 234.800 C 119.600 235.020,119.370 235.200,119.089 235.200 C 118.388 235.200,111.123 238.951,108.200 240.823 C 107.540 241.245,106.730 241.718,106.400 241.873 C 106.070 242.028,105.581 242.345,105.314 242.578 C 104.034 243.690,103.615 244.000,103.393 244.000 C 100.458 244.000,87.261 258.012,84.179 264.400 C 83.383 266.050,82.567 267.713,82.366 268.095 C 82.165 268.477,82.006 269.197,82.014 269.695 C 82.023 270.257,82.305 269.843,82.757 268.600 C 85.329 261.537,91.591 253.423,98.600 248.070 C 99.920 247.062,101.090 246.136,101.200 246.012 C 101.396 245.792,107.133 242.002,109.299 240.663 C 109.903 240.289,111.954 239.162,113.857 238.159 C 115.760 237.155,117.605 236.180,117.958 235.992 C 118.311 235.804,119.590 235.209,120.800 234.671 C 125.576 232.548,126.568 232.031,125.800 232.066 C 125.360 232.086,124.010 232.618,122.800 233.247 M283.779 236.765 C 283.903 236.966,284.858 237.541,285.902 238.042 C 291.988 240.966,300.673 247.002,305.934 251.965 C 306.887 252.864,307.779 253.600,307.916 253.600 C 308.976 253.600,295.981 242.947,293.600 241.864 C 293.270 241.714,292.460 241.245,291.800 240.823 C 288.133 238.475,283.335 236.048,283.779 236.765 M308.209 254.306 C 310.556 255.993,315.394 263.566,317.340 268.600 C 317.680 269.480,317.968 269.874,317.979 269.475 C 317.991 269.077,317.573 267.817,317.051 266.675 C 316.529 265.534,315.987 264.330,315.846 264.000 C 315.706 263.670,315.235 262.860,314.800 262.200 C 314.365 261.540,313.882 260.730,313.727 260.400 C 313.572 260.070,313.255 259.597,313.022 259.349 C 312.790 259.101,312.330 258.494,312.000 258.000 C 311.038 256.559,308.587 253.999,308.177 254.006 C 307.969 254.009,307.984 254.144,308.209 254.306 M318.212 271.600 C 319.281 275.688,318.086 280.005,315.221 282.400 C 314.579 282.937,313.633 284.800,314.003 284.800 C 314.235 284.800,314.545 284.485,314.691 284.100 C 314.924 283.485,317.700 279.442,318.799 278.117 C 319.427 277.359,319.258 272.742,318.561 271.600 L 317.950 270.600 318.212 271.600 M81.267 271.875 C 80.510 273.288,80.666 277.401,81.500 278.032 C 82.096 278.482,82.125 278.478,81.700 278.001 C 81.089 277.316,81.040 273.846,81.626 272.752 C 81.860 272.314,81.980 271.741,81.893 271.479 C 81.801 271.203,81.538 271.369,81.267 271.875 M82.011 278.926 C 81.999 279.277,89.342 289.381,90.376 290.437 C 90.719 290.787,91.715 291.957,92.589 293.037 C 96.038 297.298,110.357 311.044,109.009 308.800 C 108.811 308.470,108.294 307.944,107.859 307.632 C 105.721 306.093,99.272 299.771,95.082 295.107 C 91.140 290.718,90.817 290.343,89.655 288.800 C 88.646 287.461,85.603 283.532,84.788 282.517 C 84.574 282.251,84.395 281.891,84.389 281.717 C 84.374 281.279,82.024 278.521,82.011 278.926 M310.961 288.088 C 305.066 295.396,299.607 301.178,293.696 306.372 C 292.098 307.776,290.875 309.008,290.976 309.110 C 291.078 309.212,291.410 309.049,291.712 308.748 C 292.015 308.446,293.670 306.940,295.390 305.400 C 300.246 301.051,303.654 297.534,307.400 293.007 C 308.280 291.944,309.280 290.787,309.622 290.437 C 309.964 290.087,310.859 288.990,311.612 288.000 C 312.364 287.010,313.159 286.075,313.378 285.922 C 313.597 285.769,313.672 285.538,313.543 285.410 C 313.415 285.281,312.253 286.486,310.961 288.088 M109.600 309.512 C 109.600 309.672,110.417 310.433,111.416 311.202 C 112.416 311.971,113.451 312.783,113.716 313.006 C 115.359 314.384,117.555 316.000,117.786 316.000 C 117.935 316.000,118.308 316.225,118.615 316.500 C 119.861 317.618,120.380 318.000,120.652 318.000 C 120.809 318.000,121.267 318.299,121.671 318.664 C 122.075 319.030,122.504 319.230,122.624 319.109 C 122.745 318.989,121.532 318.018,119.929 316.953 C 118.326 315.887,115.346 313.711,113.307 312.117 C 111.268 310.523,109.600 309.351,109.600 309.512 M289.179 310.176 C 288.640 310.700,286.112 312.630,283.560 314.464 C 278.850 317.850,278.334 318.211,276.200 319.609 C 275.540 320.041,275.214 320.396,275.475 320.397 C 276.029 320.400,281.337 316.848,281.533 316.343 C 281.607 316.154,281.851 316.000,282.076 316.000 C 282.456 316.000,285.122 314.060,286.329 312.906 C 286.619 312.628,286.979 312.397,287.129 312.392 C 287.589 312.379,290.573 309.639,290.359 309.426 C 290.248 309.315,289.717 309.653,289.179 310.176 M123.200 319.609 C 123.200 319.838,123.478 320.132,123.817 320.262 C 124.755 320.622,124.866 320.233,123.982 319.681 C 123.487 319.372,123.200 319.346,123.200 319.609 M125.200 320.705 C 125.200 320.877,125.862 321.374,126.671 321.809 C 127.479 322.244,128.334 322.780,128.571 323.000 C 128.807 323.220,130.350 324.090,132.000 324.934 C 133.650 325.778,135.606 326.821,136.346 327.252 C 137.087 327.683,137.857 327.981,138.058 327.914 C 138.258 327.847,136.851 326.984,134.930 325.996 C 133.009 325.008,130.034 323.343,128.319 322.296 C 126.604 321.248,125.200 320.532,125.200 320.705 M272.200 322.052 C 270.880 322.897,267.409 324.804,264.487 326.290 C 261.565 327.776,259.317 329.039,259.491 329.097 C 259.665 329.155,261.516 328.315,263.604 327.230 C 265.692 326.145,268.210 324.840,269.200 324.329 C 270.190 323.818,271.238 323.175,271.529 322.900 C 271.819 322.625,272.269 322.394,272.529 322.387 C 273.056 322.372,275.001 320.854,274.757 320.648 C 274.670 320.576,273.520 321.208,272.200 322.052 M139.200 328.600 C 139.474 328.930,139.980 329.200,140.325 329.200 C 140.828 329.200,140.798 329.083,140.176 328.613 C 139.161 327.844,138.566 327.837,139.200 328.600 M141.824 329.787 C 142.251 330.110,142.870 330.374,143.200 330.373 C 143.548 330.372,143.380 330.132,142.800 329.800 C 141.485 329.048,140.836 329.040,141.824 329.787 M257.200 329.833 C 256.263 330.354,256.253 330.389,257.051 330.394 C 257.519 330.397,258.126 330.130,258.400 329.800 C 259.003 329.073,258.547 329.086,257.200 329.833 M144.576 331.013 C 145.004 331.336,145.591 331.600,145.882 331.600 C 146.173 331.600,146.723 331.771,147.105 331.981 C 148.689 332.848,150.841 333.692,151.019 333.514 C 151.124 333.410,149.992 332.832,148.505 332.230 C 147.017 331.629,145.487 330.971,145.105 330.768 C 144.038 330.202,143.707 330.355,144.576 331.013 M254.800 330.792 C 254.470 330.982,252.983 331.629,251.495 332.231 C 250.008 332.832,248.876 333.410,248.981 333.514 C 249.086 333.619,249.763 333.430,250.486 333.093 C 251.209 332.757,252.745 332.151,253.900 331.747 C 255.055 331.343,256.000 330.874,256.000 330.706 C 256.000 330.319,255.569 330.350,254.800 330.792 M152.800 334.200 C 153.350 334.514,154.160 334.771,154.600 334.770 C 155.152 334.769,154.983 334.588,154.054 334.184 C 152.337 333.439,151.487 333.450,152.800 334.200 M246.580 333.961 C 246.371 334.160,245.840 334.409,245.400 334.515 C 244.748 334.672,244.785 334.713,245.600 334.741 C 246.150 334.759,246.949 334.510,247.376 334.187 C 247.958 333.747,248.003 333.600,247.556 333.600 C 247.228 333.600,246.789 333.763,246.580 333.961 M156.176 335.367 C 156.604 335.715,157.423 336.000,157.996 336.000 C 158.570 336.000,159.211 336.161,159.420 336.358 C 159.807 336.723,162.833 337.520,165.000 337.829 C 166.193 337.999,162.819 336.871,159.000 335.823 C 157.900 335.521,156.640 335.153,156.200 335.005 C 155.411 334.738,155.411 334.744,156.176 335.367 M243.000 335.175 C 242.246 335.476,240.455 336.022,235.800 337.366 C 234.027 337.879,233.945 337.947,235.076 337.972 C 235.778 337.987,236.464 337.820,236.600 337.600 C 236.736 337.380,237.332 337.199,237.924 337.198 C 238.516 337.196,239.516 336.926,240.146 336.598 C 240.776 336.269,241.686 336.000,242.169 336.000 C 242.652 336.000,243.396 335.736,243.824 335.413 C 244.666 334.776,244.276 334.663,243.000 335.175 M167.746 338.566 C 168.376 338.915,169.456 339.182,170.146 339.159 L 171.400 339.118 170.000 338.737 C 166.906 337.894,166.470 337.861,167.746 338.566 M231.487 338.246 C 231.351 338.382,230.646 338.633,229.920 338.805 L 228.600 339.118 230.000 339.145 C 230.770 339.160,231.850 338.914,232.400 338.600 C 233.324 338.072,233.337 338.027,232.567 338.014 C 232.108 338.006,231.622 338.111,231.487 338.246 M173.400 339.782 C 174.060 340.102,175.500 340.350,176.600 340.332 L 178.600 340.300 177.000 340.012 C 176.120 339.853,174.680 339.606,173.800 339.461 L 172.200 339.199 173.400 339.782 M225.906 339.428 C 225.781 339.553,224.806 339.802,223.739 339.981 L 221.800 340.306 223.600 340.335 C 225.437 340.365,228.689 339.300,226.967 339.232 C 226.508 339.215,226.031 339.302,225.906 339.428 M179.677 340.785 C 182.423 342.524,217.577 342.524,220.323 340.785 C 220.853 340.450,220.697 340.404,219.600 340.572 C 215.617 341.185,206.201 341.752,200.000 341.752 C 193.799 341.752,184.383 341.185,180.400 340.572 C 179.303 340.404,179.147 340.450,179.677 340.785 " stroke="none" fill="#cccccc" fill-rule="evenodd"></path></g></svg>